<mxfile host="app.diagrams.net" modified="2024-02-08T15:27:09.916Z" agent="Mozilla/5.0 (Macintosh; Intel Mac OS X 10_15_7) AppleWebKit/537.36 (KHTML, like Gecko) Chrome/121.0.0.0 Safari/537.36" etag="x8G4m_GYl2CiZlEZ7jKJ" version="23.1.2" type="device">
  <diagram name="Page-1" id="l7AiuzQmPkepFkY7Kwle">
    <mxGraphModel dx="1380" dy="813" grid="1" gridSize="10" guides="1" tooltips="1" connect="1" arrows="1" fold="1" page="1" pageScale="1" pageWidth="827" pageHeight="1169" math="0" shadow="0">
      <root>
        <mxCell id="0" />
        <mxCell id="1" parent="0" />
        <mxCell id="P3vJJue5lyV1w-PEtfB7-50" value="" style="rounded=0;whiteSpace=wrap;html=1;fillColor=#dae8fc;strokeColor=#6c8ebf;opacity=40;" vertex="1" parent="1">
          <mxGeometry x="520" y="480" width="320" height="120" as="geometry" />
        </mxCell>
        <mxCell id="P3vJJue5lyV1w-PEtfB7-22" style="edgeStyle=orthogonalEdgeStyle;rounded=0;orthogonalLoop=1;jettySize=auto;html=1;entryX=0;entryY=0.5;entryDx=0;entryDy=0;" edge="1" parent="1" source="P3vJJue5lyV1w-PEtfB7-15" target="P3vJJue5lyV1w-PEtfB7-20">
          <mxGeometry relative="1" as="geometry" />
        </mxCell>
        <mxCell id="P3vJJue5lyV1w-PEtfB7-15" value="" style="rounded=0;whiteSpace=wrap;html=1;" vertex="1" parent="1">
          <mxGeometry x="80" y="80" width="40" height="360" as="geometry" />
        </mxCell>
        <mxCell id="P3vJJue5lyV1w-PEtfB7-16" value="" style="shape=flexArrow;endArrow=classic;html=1;rounded=0;" edge="1" parent="1">
          <mxGeometry width="50" height="50" relative="1" as="geometry">
            <mxPoint x="30" y="150" as="sourcePoint" />
            <mxPoint x="80" y="150" as="targetPoint" />
          </mxGeometry>
        </mxCell>
        <mxCell id="P3vJJue5lyV1w-PEtfB7-17" value="" style="shape=flexArrow;endArrow=classic;html=1;rounded=0;" edge="1" parent="1">
          <mxGeometry width="50" height="50" relative="1" as="geometry">
            <mxPoint x="30" y="220" as="sourcePoint" />
            <mxPoint x="80" y="220" as="targetPoint" />
          </mxGeometry>
        </mxCell>
        <mxCell id="P3vJJue5lyV1w-PEtfB7-18" value="" style="shape=flexArrow;endArrow=classic;html=1;rounded=0;" edge="1" parent="1">
          <mxGeometry width="50" height="50" relative="1" as="geometry">
            <mxPoint x="30" y="290" as="sourcePoint" />
            <mxPoint x="80" y="290" as="targetPoint" />
          </mxGeometry>
        </mxCell>
        <mxCell id="P3vJJue5lyV1w-PEtfB7-19" value="" style="shape=flexArrow;endArrow=classic;html=1;rounded=0;" edge="1" parent="1">
          <mxGeometry width="50" height="50" relative="1" as="geometry">
            <mxPoint x="30" y="360" as="sourcePoint" />
            <mxPoint x="80" y="360" as="targetPoint" />
          </mxGeometry>
        </mxCell>
        <mxCell id="P3vJJue5lyV1w-PEtfB7-29" style="edgeStyle=orthogonalEdgeStyle;rounded=0;orthogonalLoop=1;jettySize=auto;html=1;entryX=0;entryY=0.5;entryDx=0;entryDy=0;" edge="1" parent="1" source="P3vJJue5lyV1w-PEtfB7-20" target="P3vJJue5lyV1w-PEtfB7-24">
          <mxGeometry relative="1" as="geometry" />
        </mxCell>
        <mxCell id="P3vJJue5lyV1w-PEtfB7-31" style="edgeStyle=orthogonalEdgeStyle;rounded=0;orthogonalLoop=1;jettySize=auto;html=1;exitX=1;exitY=0.25;exitDx=0;exitDy=0;entryX=0;entryY=0.25;entryDx=0;entryDy=0;" edge="1" parent="1" source="P3vJJue5lyV1w-PEtfB7-20" target="P3vJJue5lyV1w-PEtfB7-24">
          <mxGeometry relative="1" as="geometry" />
        </mxCell>
        <mxCell id="P3vJJue5lyV1w-PEtfB7-32" style="edgeStyle=orthogonalEdgeStyle;rounded=0;orthogonalLoop=1;jettySize=auto;html=1;exitX=1;exitY=0.75;exitDx=0;exitDy=0;entryX=0;entryY=0.75;entryDx=0;entryDy=0;" edge="1" parent="1" source="P3vJJue5lyV1w-PEtfB7-20" target="P3vJJue5lyV1w-PEtfB7-24">
          <mxGeometry relative="1" as="geometry" />
        </mxCell>
        <mxCell id="P3vJJue5lyV1w-PEtfB7-20" value="Nginx" style="rounded=0;whiteSpace=wrap;html=1;" vertex="1" parent="1">
          <mxGeometry x="160" y="230" width="120" height="60" as="geometry" />
        </mxCell>
        <mxCell id="P3vJJue5lyV1w-PEtfB7-21" value="&lt;h1&gt;Nginx&lt;/h1&gt;&lt;p&gt;Nginx can play a crucial role in load balancing&lt;/p&gt;" style="text;html=1;strokeColor=none;fillColor=none;spacing=5;spacingTop=-20;whiteSpace=wrap;overflow=hidden;rounded=0;" vertex="1" parent="1">
          <mxGeometry x="150" y="300" width="140" height="90" as="geometry" />
        </mxCell>
        <mxCell id="P3vJJue5lyV1w-PEtfB7-23" value="HTTP requests" style="text;html=1;strokeColor=none;fillColor=none;align=center;verticalAlign=middle;whiteSpace=wrap;rounded=0;" vertex="1" parent="1">
          <mxGeometry x="70" y="40" width="60" height="30" as="geometry" />
        </mxCell>
        <mxCell id="P3vJJue5lyV1w-PEtfB7-24" value="" style="rounded=0;whiteSpace=wrap;html=1;fillColor=#dae8fc;strokeColor=#6c8ebf;opacity=40;" vertex="1" parent="1">
          <mxGeometry x="320" y="80" width="250" height="360" as="geometry" />
        </mxCell>
        <mxCell id="P3vJJue5lyV1w-PEtfB7-25" value="API Layer" style="text;html=1;strokeColor=none;fillColor=none;align=center;verticalAlign=middle;whiteSpace=wrap;rounded=0;" vertex="1" parent="1">
          <mxGeometry x="445" y="40" width="60" height="30" as="geometry" />
        </mxCell>
        <mxCell id="P3vJJue5lyV1w-PEtfB7-35" value="" style="edgeStyle=orthogonalEdgeStyle;rounded=0;orthogonalLoop=1;jettySize=auto;html=1;" edge="1" parent="1" source="P3vJJue5lyV1w-PEtfB7-26" target="P3vJJue5lyV1w-PEtfB7-34">
          <mxGeometry relative="1" as="geometry" />
        </mxCell>
        <mxCell id="P3vJJue5lyV1w-PEtfB7-26" value="Fast API" style="rounded=0;whiteSpace=wrap;html=1;" vertex="1" parent="1">
          <mxGeometry x="340" y="230" width="120" height="60" as="geometry" />
        </mxCell>
        <mxCell id="P3vJJue5lyV1w-PEtfB7-27" value="Fast API" style="rounded=0;whiteSpace=wrap;html=1;dashed=1;" vertex="1" parent="1">
          <mxGeometry x="340" y="140" width="120" height="60" as="geometry" />
        </mxCell>
        <mxCell id="P3vJJue5lyV1w-PEtfB7-28" value="Fast API" style="rounded=0;whiteSpace=wrap;html=1;dashed=1;" vertex="1" parent="1">
          <mxGeometry x="340" y="320" width="120" height="60" as="geometry" />
        </mxCell>
        <mxCell id="P3vJJue5lyV1w-PEtfB7-30" value="&lt;h1&gt;Fast API&lt;/h1&gt;&lt;p&gt;Application lays here to accept and process requests. The amount of services can be extended by adding an additional containers&lt;/p&gt;" style="text;html=1;strokeColor=none;fillColor=none;spacing=5;spacingTop=-20;whiteSpace=wrap;overflow=hidden;rounded=0;" vertex="1" parent="1">
          <mxGeometry x="319" y="460" width="181" height="130" as="geometry" />
        </mxCell>
        <mxCell id="P3vJJue5lyV1w-PEtfB7-53" style="edgeStyle=orthogonalEdgeStyle;rounded=0;orthogonalLoop=1;jettySize=auto;html=1;entryX=0.5;entryY=0;entryDx=0;entryDy=0;" edge="1" parent="1" source="P3vJJue5lyV1w-PEtfB7-34" target="P3vJJue5lyV1w-PEtfB7-50">
          <mxGeometry relative="1" as="geometry" />
        </mxCell>
        <mxCell id="P3vJJue5lyV1w-PEtfB7-54" value="POST new events" style="edgeLabel;html=1;align=center;verticalAlign=middle;resizable=0;points=[];" vertex="1" connectable="0" parent="P3vJJue5lyV1w-PEtfB7-53">
          <mxGeometry x="-0.1291" relative="1" as="geometry">
            <mxPoint x="47" as="offset" />
          </mxGeometry>
        </mxCell>
        <mxCell id="P3vJJue5lyV1w-PEtfB7-63" style="edgeStyle=orthogonalEdgeStyle;rounded=0;orthogonalLoop=1;jettySize=auto;html=1;entryX=0;entryY=0.25;entryDx=0;entryDy=0;" edge="1" parent="1" source="P3vJJue5lyV1w-PEtfB7-34" target="P3vJJue5lyV1w-PEtfB7-55">
          <mxGeometry relative="1" as="geometry" />
        </mxCell>
        <mxCell id="P3vJJue5lyV1w-PEtfB7-64" value="GET aggregated data" style="edgeLabel;html=1;align=center;verticalAlign=middle;resizable=0;points=[];" vertex="1" connectable="0" parent="P3vJJue5lyV1w-PEtfB7-63">
          <mxGeometry x="-0.0194" y="1" relative="1" as="geometry">
            <mxPoint x="-89" y="41" as="offset" />
          </mxGeometry>
        </mxCell>
        <mxCell id="P3vJJue5lyV1w-PEtfB7-34" value="&lt;font style=&quot;font-size: 11px;&quot;&gt;GET or POST&lt;/font&gt;" style="rhombus;whiteSpace=wrap;html=1;" vertex="1" parent="1">
          <mxGeometry x="480" y="220" width="80" height="80" as="geometry" />
        </mxCell>
        <mxCell id="P3vJJue5lyV1w-PEtfB7-37" value="Kafka Layer" style="text;html=1;strokeColor=none;fillColor=none;align=center;verticalAlign=middle;whiteSpace=wrap;rounded=0;" vertex="1" parent="1">
          <mxGeometry x="640" y="450" width="80" height="30" as="geometry" />
        </mxCell>
        <mxCell id="P3vJJue5lyV1w-PEtfB7-40" value="" style="edgeStyle=orthogonalEdgeStyle;rounded=0;orthogonalLoop=1;jettySize=auto;html=1;" edge="1" parent="1" source="P3vJJue5lyV1w-PEtfB7-38" target="P3vJJue5lyV1w-PEtfB7-39">
          <mxGeometry relative="1" as="geometry" />
        </mxCell>
        <mxCell id="P3vJJue5lyV1w-PEtfB7-51" style="edgeStyle=orthogonalEdgeStyle;rounded=0;orthogonalLoop=1;jettySize=auto;html=1;exitX=1;exitY=0.75;exitDx=0;exitDy=0;entryX=0;entryY=0.75;entryDx=0;entryDy=0;" edge="1" parent="1" source="P3vJJue5lyV1w-PEtfB7-38" target="P3vJJue5lyV1w-PEtfB7-39">
          <mxGeometry relative="1" as="geometry" />
        </mxCell>
        <mxCell id="P3vJJue5lyV1w-PEtfB7-52" style="edgeStyle=orthogonalEdgeStyle;rounded=0;orthogonalLoop=1;jettySize=auto;html=1;exitX=1;exitY=0.25;exitDx=0;exitDy=0;entryX=0;entryY=0.25;entryDx=0;entryDy=0;" edge="1" parent="1" source="P3vJJue5lyV1w-PEtfB7-38" target="P3vJJue5lyV1w-PEtfB7-39">
          <mxGeometry relative="1" as="geometry" />
        </mxCell>
        <mxCell id="P3vJJue5lyV1w-PEtfB7-38" value="Zookeeper cluster" style="rounded=0;whiteSpace=wrap;html=1;" vertex="1" parent="1">
          <mxGeometry x="530" y="510" width="120" height="60" as="geometry" />
        </mxCell>
        <mxCell id="P3vJJue5lyV1w-PEtfB7-45" value="&lt;h1&gt;Kafka cluster&lt;/h1&gt;&lt;div&gt;The event streaming platform. In this solution, the kafka cluster accumulates the events for Clickhouse Kafka engine table.&lt;/div&gt;" style="text;html=1;strokeColor=none;fillColor=none;spacing=5;spacingTop=-20;whiteSpace=wrap;overflow=hidden;rounded=0;" vertex="1" parent="1">
          <mxGeometry x="520" y="610" width="181" height="130" as="geometry" />
        </mxCell>
        <mxCell id="P3vJJue5lyV1w-PEtfB7-48" value="Kafka Cluster" style="rounded=0;whiteSpace=wrap;html=1;dashed=1;" vertex="1" parent="1">
          <mxGeometry x="710" y="500" width="120" height="60" as="geometry" />
        </mxCell>
        <mxCell id="P3vJJue5lyV1w-PEtfB7-39" value="Kafka Cluster" style="rounded=0;whiteSpace=wrap;html=1;" vertex="1" parent="1">
          <mxGeometry x="690" y="510" width="120" height="60" as="geometry" />
        </mxCell>
        <mxCell id="P3vJJue5lyV1w-PEtfB7-55" value="" style="rounded=0;whiteSpace=wrap;html=1;fillColor=#dae8fc;strokeColor=#6c8ebf;opacity=40;" vertex="1" parent="1">
          <mxGeometry x="880" y="80" width="120" height="360" as="geometry" />
        </mxCell>
        <mxCell id="P3vJJue5lyV1w-PEtfB7-56" value="DB Layer" style="text;html=1;strokeColor=none;fillColor=none;align=center;verticalAlign=middle;whiteSpace=wrap;rounded=0;" vertex="1" parent="1">
          <mxGeometry x="910" y="40" width="60" height="30" as="geometry" />
        </mxCell>
        <mxCell id="P3vJJue5lyV1w-PEtfB7-60" style="edgeStyle=orthogonalEdgeStyle;rounded=0;orthogonalLoop=1;jettySize=auto;html=1;entryX=0.75;entryY=0;entryDx=0;entryDy=0;exitX=0;exitY=0.5;exitDx=0;exitDy=0;" edge="1" parent="1" source="P3vJJue5lyV1w-PEtfB7-55" target="P3vJJue5lyV1w-PEtfB7-50">
          <mxGeometry relative="1" as="geometry" />
        </mxCell>
        <mxCell id="P3vJJue5lyV1w-PEtfB7-61" value="Pull new messages" style="edgeLabel;html=1;align=center;verticalAlign=middle;resizable=0;points=[];" vertex="1" connectable="0" parent="P3vJJue5lyV1w-PEtfB7-60">
          <mxGeometry x="0.6041" y="-1" relative="1" as="geometry">
            <mxPoint x="61" y="-153" as="offset" />
          </mxGeometry>
        </mxCell>
        <mxCell id="P3vJJue5lyV1w-PEtfB7-57" value="Clickhouse" style="shape=cylinder3;whiteSpace=wrap;html=1;boundedLbl=1;backgroundOutline=1;size=15;" vertex="1" parent="1">
          <mxGeometry x="910" y="210" width="60" height="80" as="geometry" />
        </mxCell>
        <mxCell id="P3vJJue5lyV1w-PEtfB7-58" value="" style="shape=cylinder3;whiteSpace=wrap;html=1;boundedLbl=1;backgroundOutline=1;size=15;dashed=1;" vertex="1" parent="1">
          <mxGeometry x="910" y="110" width="60" height="80" as="geometry" />
        </mxCell>
        <mxCell id="P3vJJue5lyV1w-PEtfB7-59" value="" style="shape=cylinder3;whiteSpace=wrap;html=1;boundedLbl=1;backgroundOutline=1;size=15;dashed=1;" vertex="1" parent="1">
          <mxGeometry x="910" y="310" width="60" height="80" as="geometry" />
        </mxCell>
        <mxCell id="P3vJJue5lyV1w-PEtfB7-66" value="&lt;h1&gt;Clickhouse&lt;/h1&gt;&lt;div&gt;Clickhouse serve as a data storage to quickly provide an aggregated data.&lt;/div&gt;" style="text;html=1;strokeColor=none;fillColor=none;spacing=5;spacingTop=-20;whiteSpace=wrap;overflow=hidden;rounded=0;" vertex="1" parent="1">
          <mxGeometry x="880" y="455" width="160" height="105" as="geometry" />
        </mxCell>
      </root>
    </mxGraphModel>
  </diagram>
</mxfile>
